<svg width="440" height="440" viewBox="0 0 440 440" fill="none" xmlns="http://www.w3.org/2000/svg">
<path d="M220 1.9233e-05C341.503 2.98551e-05 440 98.4974 440 220C440 341.503 341.503 440 220 440C98.4974 440 8.61091e-06 341.503 1.9233e-05 220C2.98551e-05 98.4973 98.4974 8.61091e-06 220 1.9233e-05Z" fill="#009465"/>
<path d="M220 440C278.348 440 334.305 416.822 375.563 375.564C416.821 334.306 440 278.348 440 220L220 220L220 440Z" fill="white"/>
<path d="M220 1.9233e-05C161.652 1.41321e-05 105.695 23.1785 64.4366 64.4365C23.1786 105.694 5.10091e-06 161.652 0 220L220 220L220 1.9233e-05Z" fill="black"/>
<path d="M220 110C280.751 110 330 159.249 330 220C330 280.751 280.751 330 220 330C159.249 330 110 280.751 110 220C110 159.249 159.249 110 220 110Z" fill="black"/>
<path d="M330 220C330 190.826 318.411 162.847 297.782 142.218C277.153 121.589 249.174 110 220 110C190.826 110 162.847 121.589 142.218 142.218C121.589 162.847 110 190.826 110 220L330 220Z" fill="white"/>
</svg>
